<svg width="32" height="32" viewBox="0 0 32 32" fill="none" xmlns="http://www.w3.org/2000/svg">
<path d="M16.0003 16.5432C16 15.4771 16.2842 14.4301 16.8235 13.5104C17.3628 12.5908 18.1377 11.8316 19.0683 11.3114C18.9416 11.1585 18.8015 11.0171 18.6497 10.889C18.3058 10.6023 17.9099 10.3846 17.4837 10.2476C17.0082 10.0953 16.512 10.0176 16.0128 10.0173C15.0392 10.0077 14.1949 10.2403 13.48 10.715C12.7651 11.1897 12.213 11.8782 11.8237 12.7804C11.4344 13.6833 11.2333 14.7821 11.2206 16.0768C11.206 17.4072 11.3885 18.5277 11.7683 19.4382C12.148 20.3487 12.6858 21.0353 13.3816 21.4979C14.0786 21.9611 14.9047 22.1975 15.8599 22.207C16.3591 22.2179 16.857 22.1508 17.3355 22.0082C17.7557 21.8817 18.1487 21.6786 18.4949 21.409C17.7225 20.8544 17.0934 20.1237 16.6596 19.2776C16.2258 18.4314 15.9998 17.4941 16.0003 16.5432ZM20.6262 18.5235C20.3013 18.8619 19.8052 18.8571 19.8052 18.8571C19.8052 18.8571 19.7804 18.362 20.1053 18.0237C20.1772 17.9475 20.2669 17.8904 20.3663 17.8574C20.1445 17.8861 19.8731 18.0361 19.6389 18.2789C19.2549 18.6936 19.0059 19.2152 18.925 19.7746C19.2171 19.7214 19.4985 19.621 19.7584 19.4774C19.9535 19.3737 20.1343 19.2452 20.2965 19.0951C20.328 19.0655 20.3596 19.0349 20.3921 18.9995C20.6253 18.7567 20.7648 18.4796 20.7849 18.2569C20.7548 18.3575 20.7003 18.4491 20.6262 18.5235ZM19.3445 16.4018L19.0091 16.9982C19.1171 16.9542 19.2385 16.9093 19.3732 16.8682C19.5767 16.8067 19.7848 16.7613 19.9954 16.7325C20.1601 16.7096 20.3261 16.6971 20.4924 16.6952C20.7033 16.1919 20.9856 15.7216 21.3306 15.2988C21.3899 15.2252 21.451 15.1545 21.5141 15.0857C21.0697 15.0996 20.6365 15.228 20.2564 15.4586C19.8763 15.6892 19.5622 16.0141 19.3445 16.4018ZM20.9187 17.6978C20.7139 17.5134 20.5403 17.2972 20.4045 17.0574L20.2076 17.3269C20.2163 17.3744 20.2331 17.42 20.2573 17.4617C20.2815 17.5072 20.3083 17.5512 20.3376 17.5936C20.3557 17.6194 20.3768 17.6471 20.4007 17.6777C20.4246 17.7083 20.4609 17.7522 20.4962 17.7933C20.5316 17.8344 20.5975 17.9023 20.6616 17.9635C20.7544 18.0544 20.8534 18.1387 20.9579 18.2158C20.9894 18.2378 21.0181 18.2578 21.0448 18.2741C21.125 18.3343 21.2178 18.3754 21.3163 18.3945L21.5772 18.1862C21.3332 18.0593 21.1109 17.8945 20.9187 17.6978ZM23.3004 17.1912C22.892 17.553 22.4332 17.8537 21.9385 18.0839C21.9472 18.4285 21.9119 18.7728 21.8333 19.1085C21.7967 19.2679 21.7505 19.4249 21.6948 19.5787L22.2768 19.2193C22.3313 19.1859 22.3839 19.1515 22.4345 19.1142C22.7692 18.873 23.0411 18.555 23.2275 18.187C23.4139 17.819 23.5094 17.4116 23.5059 16.9991C23.439 17.0651 23.3702 17.1291 23.3004 17.1912ZM24.627 15.1287C24.1507 14.7679 23.7183 14.3525 23.3387 13.891L23.3243 13.8728C23.0585 13.995 22.8028 14.1381 22.5597 14.301C22.1228 14.5915 21.732 14.9459 21.4004 15.3523C21.0564 15.7731 20.776 16.2419 20.5679 16.7439C20.5392 16.8118 20.4628 16.9752 20.4628 16.9752C20.7481 17.4613 21.1631 17.8584 21.6613 18.1221C21.6613 18.1221 21.8219 18.039 21.8888 18.0084C22.3816 17.7798 22.8387 17.481 23.246 17.1214C23.6386 16.7732 23.9775 16.3687 24.2514 15.921C24.4043 15.6708 24.537 15.4087 24.648 15.1373L24.627 15.1287ZM23.5059 15.9726C23.4141 16.0678 23.2961 16.1336 23.1669 16.1618C23.0377 16.19 22.903 16.1792 22.7799 16.1309C22.6568 16.0825 22.5508 15.9988 22.4753 15.8902C22.3997 15.7817 22.3581 15.6532 22.3555 15.5209C22.353 15.3887 22.3897 15.2587 22.461 15.1473C22.5323 15.0359 22.6351 14.9482 22.7562 14.8952C22.8774 14.8422 23.0115 14.8263 23.1417 14.8494C23.2719 14.8726 23.3924 14.9339 23.4878 15.0255C23.5512 15.0864 23.6021 15.1593 23.6374 15.2399C23.6726 15.3205 23.6917 15.4073 23.6933 15.4953C23.695 15.5833 23.6793 15.6707 23.6472 15.7526C23.615 15.8345 23.567 15.9093 23.5059 15.9726ZM23.4056 13.8365C23.5924 14.0647 23.7928 14.2814 24.0058 14.4855C24.2169 14.69 24.4404 14.8815 24.6748 15.0589C24.8846 14.5209 25.0168 13.9558 25.0676 13.3806C24.4949 13.4535 23.9353 13.6069 23.4056 13.8365ZM23.4056 13.8365C23.5924 14.0647 23.7928 14.2814 24.0058 14.4855C24.2169 14.69 24.4404 14.8815 24.6748 15.0589C24.8846 14.5209 25.0168 13.9558 25.0676 13.3806C24.4949 13.4535 23.9353 13.6069 23.4056 13.8365ZM23.9465 14.5476C23.731 14.3411 23.528 14.1218 23.3387 13.891L23.3243 13.8728C23.0585 13.995 22.8028 14.1381 22.5597 14.301C22.1228 14.5915 21.732 14.9459 21.4004 15.3523C21.0564 15.7731 20.776 16.2419 20.5679 16.7439C20.5392 16.8118 20.4628 16.9752 20.4628 16.9752C20.7481 17.4613 21.1631 17.8584 21.6613 18.1221C21.6613 18.1221 21.8219 18.039 21.8888 18.0084C22.3816 17.7798 22.8387 17.481 23.246 17.1214C23.6386 16.7732 23.9775 16.3687 24.2514 15.921C24.4043 15.6708 24.537 15.4087 24.648 15.1373L24.6299 15.123C24.3908 14.945 24.1626 14.7529 23.9465 14.5476ZM23.5059 15.9726C23.4141 16.0678 23.2961 16.1336 23.1669 16.1618C23.0377 16.19 22.903 16.1792 22.7799 16.1309C22.6568 16.0825 22.5508 15.9988 22.4753 15.8902C22.3997 15.7817 22.3581 15.6532 22.3555 15.5209C22.353 15.3887 22.3897 15.2587 22.461 15.1473C22.5323 15.0359 22.6351 14.9482 22.7562 14.8952C22.8774 14.8422 23.0115 14.8263 23.1417 14.8494C23.2719 14.8726 23.3924 14.9339 23.4878 15.0255C23.5512 15.0864 23.6021 15.1593 23.6374 15.2399C23.6726 15.3205 23.6917 15.4073 23.6933 15.4953C23.695 15.5833 23.6793 15.6707 23.6472 15.7526C23.615 15.8345 23.567 15.9093 23.5059 15.9726ZM21.9385 18.0839C21.9472 18.4285 21.9119 18.7728 21.8333 19.1085C21.7967 19.2679 21.7505 19.4249 21.6948 19.5787L22.2768 19.2193C22.3313 19.1859 22.3839 19.1515 22.4345 19.1142C22.7692 18.873 23.0411 18.555 23.2275 18.187C23.4139 17.819 23.5094 17.4116 23.5059 16.9991C23.439 17.0651 23.3702 17.1291 23.3004 17.1903C22.892 17.5524 22.4333 17.8534 21.9385 18.0839ZM20.4045 17.0574L20.2076 17.3269C20.2163 17.3744 20.2331 17.42 20.2573 17.4617C20.2815 17.5072 20.3083 17.5512 20.3376 17.5936C20.3557 17.6194 20.3768 17.6471 20.4007 17.6777C20.4246 17.7083 20.4609 17.7522 20.4962 17.7933C20.5316 17.8344 20.5975 17.9023 20.6616 17.9635C20.7544 18.0544 20.8534 18.1387 20.9579 18.2158C20.9894 18.2378 21.0181 18.2578 21.0448 18.2741C21.125 18.3343 21.2178 18.3754 21.3163 18.3945L21.5772 18.1862C21.3325 18.0595 21.1095 17.8946 20.9168 17.6978C20.7127 17.5133 20.5397 17.297 20.4045 17.0574ZM19.3732 16.8663C19.5767 16.8048 19.7848 16.7594 19.9954 16.7305C20.1601 16.7077 20.3261 16.6952 20.4924 16.6933C20.7033 16.1899 20.9856 15.7197 21.3306 15.2969C21.3899 15.2233 21.451 15.1526 21.5141 15.0838C21.0697 15.0977 20.6365 15.2261 20.2564 15.4567C19.8763 15.6873 19.5622 16.0122 19.3445 16.3999L19.0091 16.9962C19.1161 16.9542 19.2385 16.9093 19.3732 16.8682V16.8663ZM19.8052 18.8552C19.8052 18.8552 19.7804 18.3601 20.1053 18.0218C20.1772 17.9456 20.2669 17.8885 20.3663 17.8555C20.1445 17.8841 19.8731 18.0342 19.6389 18.277C19.2545 18.6922 19.0055 19.2145 18.925 19.7746C19.2171 19.7214 19.4985 19.621 19.7584 19.4774C19.9535 19.3737 20.1343 19.2452 20.2965 19.0951C20.328 19.0655 20.3596 19.0349 20.3921 18.9995C20.6253 18.7567 20.7648 18.4796 20.7849 18.2569C20.7557 18.3572 20.7022 18.4488 20.6291 18.5235C20.3013 18.8619 19.8052 18.8571 19.8052 18.8571V18.8552ZM16.0003 16.5432C16 15.4771 16.2842 14.4301 16.8235 13.5104C17.3628 12.5908 18.1377 11.8316 19.0683 11.3114C18.9416 11.1585 18.8015 11.0171 18.6497 10.889C18.3058 10.6023 17.9099 10.3846 17.4837 10.2476C17.0082 10.0953 16.512 10.0176 16.0128 10.0173C15.0392 10.0077 14.1949 10.2403 13.48 10.715C12.7651 11.1897 12.213 11.8782 11.8237 12.7804C11.4344 13.6833 11.2333 14.7821 11.2206 16.0768C11.206 17.4072 11.3885 18.5277 11.7683 19.4382C12.148 20.3487 12.6858 21.0353 13.3816 21.4979C14.0786 21.9611 14.9047 22.1975 15.8599 22.207C16.3591 22.2179 16.857 22.1508 17.3355 22.0082C17.7557 21.8817 18.1487 21.6786 18.4949 21.409C17.7225 20.8544 17.0934 20.1237 16.6596 19.2776C16.2258 18.4314 15.9998 17.4941 16.0003 16.5432ZM16.0003 0C12.8358 0 9.74228 0.938404 7.11104 2.69654C4.47979 4.45468 2.42899 6.9536 1.21796 9.87728C0.00693273 12.801 -0.309927 16.0181 0.307449 19.1219C0.924826 22.2256 2.44871 25.0766 4.6864 27.3143C6.92409 29.552 9.77507 31.0759 12.8788 31.6932C15.9826 32.3106 19.1997 31.9938 22.1234 30.7827C25.0471 29.5717 27.546 27.5209 29.3041 24.8897C31.0623 22.2584 32.0007 19.1649 32.0007 16.0003C32.0007 11.7568 30.3149 7.68704 27.3143 4.68639C24.3137 1.68575 20.2439 0 16.0003 0ZM23.5126 22.3447C22.5432 23.9171 21.0772 25.1215 19.3465 25.7672C18.2888 26.175 17.081 26.3722 15.7232 26.3588C13.9283 26.3397 12.3229 25.9256 10.9071 25.1164C9.49132 24.3072 8.37754 23.1351 7.56579 21.6001C6.7553 20.0645 6.36153 18.2072 6.38447 16.0281C6.40741 13.8317 6.84451 11.9741 7.69577 10.455C8.54703 8.93602 9.69076 7.78688 11.1269 7.00762C12.5663 6.22772 14.1691 5.84637 15.9354 5.86357C17.0526 5.86478 18.1627 6.04152 19.2251 6.38733C20.1947 6.7041 21.0974 7.19726 21.8878 7.84199C22.8801 8.66622 23.6451 9.73058 24.11 10.9339C25.3001 11.383 26.3165 12.199 27.0124 13.2638C27.7082 14.3287 28.0474 15.5872 27.9809 16.8575C27.9144 18.1279 27.4457 19.3441 26.6424 20.3305C25.8392 21.3169 24.7431 22.0222 23.5126 22.3447ZM24.0077 14.4855C24.2189 14.69 24.4423 14.8815 24.6767 15.0589C24.8858 14.5208 25.0175 13.9557 25.0676 13.3806C24.4949 13.4535 23.9353 13.6069 23.4056 13.8365C23.5924 14.0647 23.7928 14.2814 24.0058 14.4855H24.0077ZM23.9484 14.5476C23.7329 14.3411 23.5299 14.1218 23.3406 13.891L23.3262 13.8728C23.0604 13.995 22.8047 14.1381 22.5616 14.301C22.1247 14.5915 21.7339 14.9459 21.4023 15.3523C21.0584 15.7731 20.7779 16.2419 20.5698 16.7439C20.5412 16.8118 20.4647 16.9752 20.4647 16.9752C20.75 17.4613 21.165 17.8584 21.6632 18.1221C21.6632 18.1221 21.8238 18.039 21.8907 18.0084C22.3835 17.7798 22.8406 17.481 23.2479 17.1214C23.6405 16.7732 23.9794 16.3687 24.2533 15.921C24.4062 15.6708 24.5389 15.4087 24.65 15.1373L24.6318 15.123C24.3921 14.945 24.1632 14.7529 23.9465 14.5476H23.9484ZM23.5078 15.9726C23.416 16.0678 23.298 16.1336 23.1688 16.1618C23.0396 16.19 22.9049 16.1792 22.7818 16.1309C22.6587 16.0825 22.5527 15.9988 22.4772 15.8902C22.4016 15.7817 22.36 15.6532 22.3574 15.5209C22.3549 15.3887 22.3916 15.2587 22.4629 15.1473C22.5343 15.0359 22.637 14.9482 22.7581 14.8952C22.8793 14.8422 23.0135 14.8263 23.1437 14.8494C23.2739 14.8726 23.3943 14.9339 23.4897 15.0255C23.553 15.0865 23.6037 15.1595 23.6388 15.2402C23.6739 15.3209 23.6928 15.4077 23.6943 15.4957C23.6958 15.5837 23.6799 15.6711 23.6476 15.7529C23.6153 15.8348 23.5671 15.9094 23.5059 15.9726H23.5078ZM21.9404 18.0839C21.9491 18.4285 21.9138 18.7728 21.8353 19.1085C21.7987 19.2679 21.7524 19.4249 21.6967 19.5787L22.2787 19.2193C22.3332 19.1859 22.3858 19.1515 22.4364 19.1142C22.7711 18.873 23.043 18.555 23.2294 18.187C23.4158 17.819 23.5113 17.4116 23.5078 16.9991C23.4409 17.0651 23.3721 17.1291 23.3023 17.1903C22.8934 17.5526 22.4339 17.8536 21.9385 18.0839H21.9404ZM20.4064 17.0574L20.2095 17.3269C20.2182 17.3744 20.2351 17.42 20.2592 17.4617C20.2834 17.5072 20.3102 17.5512 20.3395 17.5936C20.3577 17.6194 20.3787 17.6471 20.4026 17.6777C20.4265 17.7083 20.4628 17.7522 20.4981 17.7933C20.5335 17.8344 20.5995 17.9023 20.6635 17.9635C20.7563 18.0544 20.8553 18.1387 20.9598 18.2158C20.9913 18.2378 21.02 18.2578 21.0468 18.2741C21.1269 18.3343 21.2198 18.3754 21.3182 18.3945L21.5791 18.1862C21.3344 18.0595 21.1115 17.8946 20.9187 17.6978C20.7139 17.5134 20.5403 17.2972 20.4045 17.0574H20.4064ZM19.3751 16.8663C19.5787 16.8048 19.7867 16.7594 19.9973 16.7305C20.162 16.7077 20.328 16.6952 20.4943 16.6933C20.7052 16.1899 20.9875 15.7197 21.3325 15.2969C21.3918 15.2233 21.4529 15.1526 21.516 15.0838C21.0717 15.0977 20.6384 15.2261 20.2583 15.4567C19.8782 15.6873 19.5641 16.0122 19.3465 16.3999L19.011 16.9962C19.1161 16.9542 19.2385 16.9093 19.3732 16.8682L19.3751 16.8663ZM19.8071 18.8552C19.8071 18.8552 19.7823 18.3601 20.1072 18.0218C20.1791 17.9456 20.2688 17.8885 20.3682 17.8555C20.1464 17.8841 19.875 18.0342 19.6408 18.277C19.2557 18.692 19.006 19.2143 18.925 19.7746C19.2171 19.7214 19.4985 19.621 19.7584 19.4774C19.9535 19.3737 20.1343 19.2452 20.2965 19.0951C20.328 19.0655 20.3596 19.0349 20.3921 18.9995C20.6253 18.7567 20.7648 18.4796 20.7849 18.2569C20.7557 18.3572 20.7022 18.4488 20.6291 18.5235C20.3013 18.8619 19.8052 18.8571 19.8052 18.8571L19.8071 18.8552ZM16.0003 16.5432C16 15.4771 16.2842 14.4301 16.8235 13.5104C17.3628 12.5908 18.1377 11.8316 19.0683 11.3114C18.9416 11.1585 18.8015 11.0171 18.6497 10.889C18.3058 10.6023 17.9099 10.3846 17.4837 10.2476C17.0082 10.0953 16.512 10.0176 16.0128 10.0173C15.0392 10.0077 14.1949 10.2403 13.48 10.715C12.7651 11.1897 12.213 11.8782 11.8237 12.7804C11.4344 13.6833 11.2333 14.7821 11.2206 16.0768C11.206 17.4072 11.3885 18.5277 11.7683 19.4382C12.148 20.3487 12.6858 21.0353 13.3816 21.4979C14.0786 21.9611 14.9047 22.1975 15.8599 22.207C16.3591 22.2179 16.857 22.1508 17.3355 22.0082C17.7557 21.8817 18.1487 21.6786 18.4949 21.409C17.7225 20.8544 17.0934 20.1237 16.6596 19.2776C16.2258 18.4314 15.9998 17.4941 16.0003 16.5432ZM16.0003 16.5432C16 15.4771 16.2842 14.4301 16.8235 13.5104C17.3628 12.5908 18.1377 11.8316 19.0683 11.3114C18.9416 11.1585 18.8015 11.0171 18.6497 10.889C18.3058 10.6023 17.9099 10.3846 17.4837 10.2476C17.0082 10.0953 16.512 10.0176 16.0128 10.0173C15.0392 10.0077 14.1949 10.2403 13.48 10.715C12.7651 11.1897 12.213 11.8782 11.8237 12.7804C11.4344 13.6833 11.2333 14.7821 11.2206 16.0768C11.206 17.4072 11.3885 18.5277 11.7683 19.4382C12.148 20.3487 12.6858 21.0353 13.3816 21.4979C14.0786 21.9611 14.9047 22.1975 15.8599 22.207C16.3591 22.2179 16.857 22.1508 17.3355 22.0082C17.7557 21.8817 18.1487 21.6786 18.4949 21.409C17.7225 20.8544 17.0934 20.1237 16.6596 19.2776C16.2258 18.4314 15.9998 17.4941 16.0003 16.5432ZM20.6262 18.5235C20.3013 18.8619 19.8052 18.8571 19.8052 18.8571C19.8052 18.8571 19.7804 18.362 20.1053 18.0237C20.1772 17.9475 20.2669 17.8904 20.3663 17.8574C20.1445 17.8861 19.8731 18.0361 19.6389 18.2789C19.2549 18.6936 19.0059 19.2152 18.925 19.7746C19.2171 19.7214 19.4985 19.621 19.7584 19.4774C19.9535 19.3737 20.1343 19.2452 20.2965 19.0951C20.328 19.0655 20.3596 19.0349 20.3921 18.9995C20.6253 18.7567 20.7648 18.4796 20.7849 18.2569C20.7548 18.3575 20.7003 18.4491 20.6262 18.5235ZM19.3445 16.4018L19.0091 16.9982C19.1171 16.9542 19.2385 16.9093 19.3732 16.8682C19.5767 16.8067 19.7848 16.7613 19.9954 16.7325C20.1601 16.7096 20.3261 16.6971 20.4924 16.6952C20.7033 16.1919 20.9856 15.7216 21.3306 15.2988C21.3899 15.2252 21.451 15.1545 21.5141 15.0857C21.0697 15.0996 20.6365 15.228 20.2564 15.4586C19.8763 15.6892 19.5622 16.0141 19.3445 16.4018ZM20.9187 17.6978C20.7139 17.5134 20.5403 17.2972 20.4045 17.0574L20.2076 17.3269C20.2163 17.3744 20.2331 17.42 20.2573 17.4617C20.2815 17.5072 20.3083 17.5512 20.3376 17.5936C20.3557 17.6194 20.3768 17.6471 20.4007 17.6777C20.4246 17.7083 20.4609 17.7522 20.4962 17.7933C20.5316 17.8344 20.5975 17.9023 20.6616 17.9635C20.7544 18.0544 20.8534 18.1387 20.9579 18.2158C20.9894 18.2378 21.0181 18.2578 21.0448 18.2741C21.125 18.3343 21.2178 18.3754 21.3163 18.3945L21.5772 18.1862C21.3332 18.0593 21.1109 17.8945 20.9187 17.6978ZM23.3004 17.1912C22.892 17.553 22.4332 17.8537 21.9385 18.0839C21.9472 18.4285 21.9119 18.7728 21.8333 19.1085C21.7967 19.2679 21.7505 19.4249 21.6948 19.5787L22.2768 19.2193C22.3313 19.1859 22.3839 19.1515 22.4345 19.1142C22.7692 18.873 23.0411 18.555 23.2275 18.187C23.4139 17.819 23.5094 17.4116 23.5059 16.9991C23.439 17.0651 23.3702 17.1291 23.3004 17.1912ZM24.627 15.1287C24.1507 14.7679 23.7183 14.3525 23.3387 13.891L23.3243 13.8728C23.0585 13.995 22.8028 14.1381 22.5597 14.301C22.1228 14.5915 21.732 14.9459 21.4004 15.3523C21.0564 15.7731 20.776 16.2419 20.5679 16.7439C20.5392 16.8118 20.4628 16.9752 20.4628 16.9752C20.7481 17.4613 21.1631 17.8584 21.6613 18.1221C21.6613 18.1221 21.8219 18.039 21.8888 18.0084C22.3816 17.7798 22.8387 17.481 23.246 17.1214C23.6386 16.7732 23.9775 16.3687 24.2514 15.921C24.4043 15.6708 24.537 15.4087 24.648 15.1373L24.627 15.1287ZM23.5059 15.9726C23.4141 16.0678 23.2961 16.1336 23.1669 16.1618C23.0377 16.19 22.903 16.1792 22.7799 16.1309C22.6568 16.0825 22.5508 15.9988 22.4753 15.8902C22.3997 15.7817 22.3581 15.6532 22.3555 15.5209C22.353 15.3887 22.3897 15.2587 22.461 15.1473C22.5323 15.0359 22.6351 14.9482 22.7562 14.8952C22.8774 14.8422 23.0115 14.8263 23.1417 14.8494C23.2719 14.8726 23.3924 14.9339 23.4878 15.0255C23.5512 15.0864 23.6021 15.1593 23.6374 15.2399C23.6726 15.3205 23.6917 15.4073 23.6933 15.4953C23.695 15.5833 23.6793 15.6707 23.6472 15.7526C23.615 15.8345 23.567 15.9093 23.5059 15.9726ZM23.4056 13.8365C23.5924 14.0647 23.7928 14.2814 24.0058 14.4855C24.2169 14.69 24.4404 14.8815 24.6748 15.0589C24.8846 14.5209 25.0168 13.9558 25.0676 13.3806C24.4949 13.4535 23.9353 13.6069 23.4056 13.8365ZM23.4056 13.8365C23.5924 14.0647 23.7928 14.2814 24.0058 14.4855C24.2169 14.69 24.4404 14.8815 24.6748 15.0589C24.8846 14.5209 25.0168 13.9558 25.0676 13.3806C24.4949 13.4535 23.9353 13.6069 23.4056 13.8365ZM24.627 15.1287C24.1507 14.7679 23.7183 14.3525 23.3387 13.891L23.3243 13.8728C23.0585 13.995 22.8028 14.1381 22.5597 14.301C22.1228 14.5915 21.732 14.9459 21.4004 15.3523C21.0564 15.7731 20.776 16.2419 20.5679 16.7439C20.5392 16.8118 20.4628 16.9752 20.4628 16.9752C20.7481 17.4613 21.1631 17.8584 21.6613 18.1221C21.6613 18.1221 21.8219 18.039 21.8888 18.0084C22.3816 17.7798 22.8387 17.481 23.246 17.1214C23.6386 16.7732 23.9775 16.3687 24.2514 15.921C24.4043 15.6708 24.537 15.4087 24.648 15.1373L24.627 15.1287ZM23.5059 15.9726C23.4141 16.0678 23.2961 16.1336 23.1669 16.1618C23.0377 16.19 22.903 16.1792 22.7799 16.1309C22.6568 16.0825 22.5508 15.9988 22.4753 15.8902C22.3997 15.7817 22.3581 15.6532 22.3555 15.5209C22.353 15.3887 22.3897 15.2587 22.461 15.1473C22.5323 15.0359 22.6351 14.9482 22.7562 14.8952C22.8774 14.8422 23.0115 14.8263 23.1417 14.8494C23.2719 14.8726 23.3924 14.9339 23.4878 15.0255C23.5512 15.0864 23.6021 15.1593 23.6374 15.2399C23.6726 15.3205 23.6917 15.4073 23.6933 15.4953C23.695 15.5833 23.6793 15.6707 23.6472 15.7526C23.615 15.8345 23.567 15.9093 23.5059 15.9726ZM20.6262 18.5235C20.3013 18.8619 19.8052 18.8571 19.8052 18.8571C19.8052 18.8571 19.7804 18.362 20.1053 18.0237C20.1772 17.9475 20.2669 17.8904 20.3663 17.8574C20.1445 17.8861 19.8731 18.0361 19.6389 18.2789C19.2549 18.6936 19.0059 19.2152 18.925 19.7746C19.2171 19.7214 19.4985 19.621 19.7584 19.4774C19.9535 19.3737 20.1343 19.2452 20.2965 19.0951C20.328 19.0655 20.3596 19.0349 20.3921 18.9995C20.6253 18.7567 20.7648 18.4796 20.7849 18.2569C20.7548 18.3575 20.7003 18.4491 20.6262 18.5235ZM23.3023 17.1912C22.8939 17.553 22.4351 17.8537 21.9404 18.0839C21.9491 18.4285 21.9138 18.7728 21.8353 19.1085C21.7987 19.2679 21.7524 19.4249 21.6967 19.5787L22.2787 19.2193C22.3332 19.1859 22.3858 19.1515 22.4364 19.1142C22.7711 18.873 23.043 18.555 23.2294 18.187C23.4158 17.819 23.5113 17.4116 23.5078 16.9991C23.439 17.0651 23.3702 17.1291 23.3004 17.1912H23.3023ZM20.9206 17.6978C20.7158 17.5134 20.5422 17.2972 20.4064 17.0574L20.2095 17.3269C20.2182 17.3744 20.2351 17.42 20.2592 17.4617C20.2834 17.5072 20.3102 17.5512 20.3395 17.5936C20.3577 17.6194 20.3787 17.6471 20.4026 17.6777C20.4265 17.7083 20.4628 17.7522 20.4981 17.7933C20.5335 17.8344 20.5995 17.9023 20.6635 17.9635C20.7563 18.0544 20.8553 18.1387 20.9598 18.2158C20.9913 18.2378 21.02 18.2578 21.0468 18.2741C21.1269 18.3343 21.2198 18.3754 21.3182 18.3945L21.5791 18.1862C21.3344 18.0595 21.1115 17.8946 20.9187 17.6978H20.9206ZM19.3465 16.4018L19.011 16.9982C19.119 16.9542 19.2404 16.9093 19.3751 16.8682C19.5787 16.8067 19.7867 16.7613 19.9973 16.7325C20.162 16.7096 20.328 16.6971 20.4943 16.6952C20.7052 16.1919 20.9875 15.7216 21.3325 15.2988C21.3918 15.2252 21.4529 15.1545 21.516 15.0857C21.0713 15.0993 20.6377 15.2276 20.2572 15.4582C19.8767 15.6888 19.5623 16.0138 19.3445 16.4018H19.3465ZM16.0013 16.5432C16.001 15.4771 16.2851 14.4301 16.8244 13.5104C17.3637 12.5908 18.1387 11.8316 19.0693 11.3114C18.9425 11.1585 18.8024 11.0171 18.6507 10.889C18.3068 10.6023 17.9109 10.3846 17.4846 10.2476C17.0092 10.0953 16.513 10.0176 16.0137 10.0173C15.0401 10.0077 14.1959 10.2403 13.481 10.715C12.7661 11.1897 12.2136 11.8782 11.8237 12.7804C11.4344 13.6833 11.2333 14.7821 11.2206 16.0768C11.206 17.4072 11.3885 18.5277 11.7683 19.4382C12.148 20.3487 12.6858 21.0353 13.3816 21.4979C14.0786 21.9611 14.9047 22.1975 15.8599 22.207C16.3591 22.2179 16.857 22.1508 17.3355 22.0082C17.7557 21.8817 18.1487 21.6786 18.4949 21.409C17.7225 20.8544 17.0934 20.1237 16.6596 19.2776C16.2258 18.4314 15.9998 17.4941 16.0003 16.5432H16.0013Z" fill="#DE3746"/>
</svg>
