<svg width="44" height="43" viewBox="0 0 44 43" fill="none" xmlns="http://www.w3.org/2000/svg">
<g clip-path="url(#clip0_2475_20746)">
<path d="M43.5 21.5C43.5 9.62588 33.8741 0 22 0C10.1259 0 0.5 9.62588 0.5 21.5C0.5 32.2313 8.36224 41.1259 18.6406 42.7387V27.7148H13.1816V21.5H18.6406V16.7633C18.6406 11.3748 21.8504 8.39844 26.7615 8.39844C29.1138 8.39844 31.5742 8.81836 31.5742 8.81836V14.1094H28.8631C26.1923 14.1094 25.3594 15.7667 25.3594 17.467V21.5H31.3223L30.369 27.7148H25.3594V42.7387C35.6378 41.1259 43.5 32.2313 43.5 21.5Z" fill="#1877F2"/>
<path d="M30.369 27.7148L31.3223 21.5H25.3594V17.467C25.3594 15.7667 26.1923 14.1094 28.8631 14.1094H31.5742V8.81836C31.5742 8.81836 29.1138 8.39844 26.7615 8.39844C21.8504 8.39844 18.6406 11.3748 18.6406 16.7633V21.5H13.1816V27.7148H18.6406V42.7387C20.8667 43.0871 23.1333 43.0871 25.3594 42.7387V27.7148H30.369Z" fill="white"/>
</g>
<defs>
<clipPath id="clip0_2475_20746">
<rect width="43" height="43" fill="white" transform="translate(0.5)"/>
</clipPath>
</defs>
</svg>
