<svg width="44" height="43" viewBox="0 0 44 43" fill="none" xmlns="http://www.w3.org/2000/svg">
<g clip-path="url(#clip0_2475_20749)">
<mask id="mask0_2475_20749" style="mask-type:luminance" maskUnits="userSpaceOnUse" x="0" y="0" width="44" height="43">
<path d="M22 43C33.8741 43 43.5 33.3741 43.5 21.5C43.5 9.62588 33.8741 0 22 0C10.1259 0 0.5 9.62588 0.5 21.5C0.5 33.3741 10.1259 43 22 43Z" fill="white"/>
</mask>
<g mask="url(#mask0_2475_20749)">
<path d="M9.73828 87.0078C35.2491 87.0078 55.9297 66.3272 55.9297 40.8164C55.9297 15.3056 35.2491 -5.375 9.73828 -5.375C-15.7725 -5.375 -36.4531 15.3056 -36.4531 40.8164C-36.4531 66.3272 -15.7725 87.0078 9.73828 87.0078Z" fill="url(#paint0_radial_2475_20749)"/>
</g>
<path d="M28.0469 17.1328C28.9745 17.1328 29.7266 16.3808 29.7266 15.4531C29.7266 14.5255 28.9745 13.7734 28.0469 13.7734C27.1192 13.7734 26.3672 14.5255 26.3672 15.4531C26.3672 16.3808 27.1192 17.1328 28.0469 17.1328Z" fill="white"/>
<path d="M22 16.125C20.9369 16.125 19.8977 16.4402 19.0138 17.0309C18.1299 17.6215 17.441 18.4609 17.0341 19.4431C16.6273 20.4252 16.5209 21.506 16.7283 22.5486C16.9357 23.5913 17.4476 24.549 18.1993 25.3007C18.951 26.0524 19.9087 26.5643 20.9514 26.7717C21.994 26.9791 23.0748 26.8727 24.0569 26.4659C25.0391 26.059 25.8785 25.3701 26.4692 24.4862C27.0598 23.6023 27.375 22.5631 27.375 21.5C27.375 20.0745 26.8087 18.7073 25.8007 17.6993C24.7927 16.6913 23.4255 16.125 22 16.125ZM22 24.1875C21.4685 24.1875 20.9489 24.0299 20.5069 23.7346C20.065 23.4393 19.7205 23.0195 19.5171 22.5285C19.3137 22.0374 19.2604 21.497 19.3641 20.9757C19.4678 20.4544 19.7238 19.9755 20.0997 19.5997C20.4755 19.2238 20.9544 18.9678 21.4757 18.8641C21.997 18.7604 22.5374 18.8137 23.0285 19.0171C23.5195 19.2205 23.9393 19.5649 24.2346 20.0069C24.5299 20.4489 24.6875 20.9685 24.6875 21.5C24.6875 22.2128 24.4044 22.8963 23.9004 23.4003C23.3963 23.9044 22.7128 24.1875 22 24.1875Z" fill="white"/>
<path d="M28.7188 10.75H15.2812C13.0549 10.75 11.25 12.5549 11.25 14.7812V28.2188C11.25 30.4451 13.0549 32.25 15.2812 32.25H28.7188C30.9451 32.25 32.75 30.4451 32.75 28.2188V14.7812C32.75 12.5549 30.9451 10.75 28.7188 10.75Z" stroke="white" stroke-width="2.6875" stroke-miterlimit="10"/>
</g>
<defs>
<radialGradient id="paint0_radial_2475_20749" cx="0" cy="0" r="1" gradientUnits="userSpaceOnUse" gradientTransform="translate(9.73828 40.8164) scale(46.1914)">
<stop stop-color="#FFD676"/>
<stop offset="0.25" stop-color="#F2A454"/>
<stop offset="0.38" stop-color="#F05C3C"/>
<stop offset="0.7" stop-color="#C22F86"/>
<stop offset="0.96" stop-color="#6666AD"/>
<stop offset="0.99" stop-color="#5C6CB2"/>
</radialGradient>
<clipPath id="clip0_2475_20749">
<rect width="43" height="43" fill="white" transform="translate(0.5)"/>
</clipPath>
</defs>
</svg>
