<svg width="44" height="43" viewBox="0 0 44 43" fill="none" xmlns="http://www.w3.org/2000/svg">
<g clip-path="url(#clip0_2475_20783)">
<path d="M22 0.000244141C10.1258 0.000244141 0.5 9.62602 0.5 21.5002C0.5 33.3744 10.1258 43.0002 22 43.0002C33.8741 43.0002 43.5 33.3744 43.5 21.5002C43.4999 9.62602 33.874 0.000244141 22 0.000244141ZM16.2637 31.8944H11.5432V16.6437H16.2637V31.8944ZM13.881 14.6466C12.3393 14.6466 11.0895 13.3866 11.0895 11.8325C11.0895 10.2783 12.3395 9.01844 13.881 9.01844C15.4225 9.01844 16.6723 10.2783 16.6723 11.8325C16.6724 13.3866 15.4226 14.6466 13.881 14.6466ZM33.9539 31.8944H29.2563V23.8891C29.2563 21.6935 28.4223 20.4678 26.6861 20.4678C24.7966 20.4678 23.8095 21.7443 23.8095 23.8891V31.8944H19.282V16.6437H23.8095V18.6978C23.8095 18.6978 25.1714 16.1786 28.4052 16.1786C31.639 16.1786 33.954 18.1531 33.954 22.2379L33.9539 31.8944Z" fill="url(#paint0_linear_2475_20783)"/>
</g>
<defs>
<linearGradient id="paint0_linear_2475_20783" x1="6.79718" y1="6.29743" x2="37.2027" y2="36.703" gradientUnits="userSpaceOnUse">
<stop stop-color="#2489BE"/>
<stop offset="1" stop-color="#0575B3"/>
</linearGradient>
<clipPath id="clip0_2475_20783">
<rect width="43" height="43" fill="white" transform="translate(0.5)"/>
</clipPath>
</defs>
</svg>
