<svg width="1536" height="420" viewBox="0 0 1536 420" fill="none" xmlns="http://www.w3.org/2000/svg">
<g style="mix-blend-mode:color-dodge" opacity="0.14">
<path d="M-442.598 385.573C-446.909 449.178 -375.684 501.253 -304.147 506.8C-232.592 512.373 -163.536 483.618 -101.626 451.254C-39.698 418.914 20.9288 381.62 90.8729 367.115C235.642 337.119 379.743 410.385 503.28 483.614C626.817 556.844 763.074 636.635 910.707 621.024C1026.45 608.769 1123.14 539.734 1230.88 500.237C1418.94 431.276 1647.81 459.223 1807.7 570.742M-445.841 368.623C-450.207 432.154 -379.589 484.376 -308.272 490.585C-301.901 491.155 -295.53 491.406 -289.186 491.463C-224.596 491.762 -162.192 466.033 -105.62 437.223C-94.6953 431.664 -83.8074 425.95 -72.9194 420.236C-21.806 393.39 29.7119 366.446 87.3586 354.779C106.035 350.986 124.731 348.913 143.356 348.332C269.002 344.346 391.739 408.364 498.636 472.797C506.4 477.49 514.21 482.191 522.065 486.9C638.364 556.61 764.654 625.449 901.638 615.553C940.816 612.717 978.453 604.397 1015.37 591.202C1058.95 575.642 1100.66 553.775 1141.85 532.707C1169.98 518.327 1198.03 504.273 1227.07 492.385C1240.73 486.798 1254.65 481.723 1268.83 477.203C1359.1 448.386 1459.38 442.438 1554.85 457.686C1650.56 472.975 1741.56 509.116 1817.44 563.027M-449.085 351.669C-453.516 415.167 -383.522 467.513 -312.426 474.382C-306.063 474.992 -299.711 475.326 -293.377 475.423C-228.942 476.309 -166.418 451.322 -109.588 423.172C-98.6168 417.727 -87.7103 412.143 -76.7763 406.543C-25.4784 380.26 26.2237 353.772 83.8524 342.399C102.529 338.711 121.216 336.679 139.85 336.164C265.542 332.609 387.847 396.849 494.029 461.918C501.737 466.644 509.51 471.402 517.283 476.16C632.653 546.597 757.013 615.309 892.641 609.963C932.271 608.415 970.857 602.254 1009.04 589.473C1054.17 574.376 1096.94 551.064 1138.23 528.382C1166.41 512.909 1194.27 497.591 1223.28 484.489C1236.94 478.331 1250.85 472.702 1265.14 467.652C1356.11 435.483 1460.08 428.446 1558.3 444.578C1656.72 460.727 1749.65 499.262 1827.17 555.348M-452.358 334.733C-456.844 398.158 -387.484 450.668 -316.599 458.157C-310.273 458.824 -303.939 459.239 -297.614 459.377C-233.289 460.859 -170.672 436.63 -113.602 409.116C-102.613 403.801 -91.6142 398.339 -80.6617 392.87C-29.1793 367.148 22.6795 341.133 80.3177 330.037C98.9759 326.431 117.645 324.481 136.27 324.006C261.963 320.876 383.863 385.319 489.346 451.05C497.018 455.833 504.708 460.64 512.426 465.431C626.887 536.619 749.399 605.26 883.561 604.425C923.688 604.172 963.159 600.138 1002.64 587.755C1049.33 573.144 1093.15 548.363 1134.52 524.042C1162.78 507.461 1190.4 490.872 1219.39 476.58C1233.02 469.843 1246.97 463.651 1261.36 458.087C1353.04 422.566 1460.67 414.415 1561.63 431.433C1662.8 448.466 1757.63 489.371 1836.81 547.614M-455.619 317.757C-460.142 381.133 -391.407 433.766 -320.769 441.932C-314.434 442.665 -308.155 443.112 -301.848 443.331C-237.66 445.425 -174.942 421.913 -117.632 395.034C-106.578 389.858 -95.5797 384.502 -84.5535 379.131C-32.8867 353.972 19.175 328.437 76.8042 317.594C95.4625 314.094 114.122 312.184 132.729 311.791C258.45 309.068 379.909 373.773 484.731 440.108C492.348 444.924 500.001 449.788 507.655 454.652C621.188 526.567 741.954 595.325 874.548 598.813C915.164 599.897 955.575 597.956 996.306 585.963C1044.59 571.823 1089.43 545.589 1130.9 519.654C1159.19 501.955 1186.64 484.127 1215.61 468.604C1229.22 461.313 1243.23 454.559 1257.73 448.44C1350.09 409.543 1461.42 400.327 1565.1 418.205C1668.99 436.098 1765.75 479.397 1846.6 539.799M-458.863 300.803C-463.469 364.122 -395.323 416.927 -324.923 425.729C-318.625 426.519 -312.336 427.032 -306.039 427.292C-241.988 429.997 -179.168 407.203 -121.6 380.984C-110.5 375.922 -99.4556 370.68 -88.4109 365.439C-36.5597 340.842 15.6863 315.764 73.2974 305.214C91.9374 301.796 110.579 299.967 129.222 299.623C254.989 297.332 375.999 362.234 480.123 429.23C487.703 434.102 495.255 438.991 502.872 443.913C615.478 516.555 734.56 585.568 865.541 593.265C906.719 595.676 947.95 595.83 989.969 584.275C1039.8 570.597 1085.7 542.919 1127.3 515.353C1155.68 496.546 1182.92 477.454 1211.84 460.733C1225.45 452.871 1239.45 445.562 1254.06 438.914C1347.12 396.665 1462.12 386.335 1568.54 405.097C1675.15 423.892 1773.83 469.544 1856.35 532.104M-462.106 283.85C-466.749 347.121 -399.255 400.065 -329.048 409.512C-322.786 410.359 -316.489 410.937 -310.228 411.254C-246.305 414.53 -183.374 392.518 -125.613 366.926C-114.467 361.978 -103.385 356.892 -92.2942 351.764C-40.2769 327.705 12.1443 303.124 69.765 292.851C88.405 289.539 107.056 287.776 125.662 287.489C251.458 285.606 372.054 350.752 475.461 418.385C482.986 423.291 490.502 428.237 498.036 433.207C609.714 506.576 727.207 575.966 856.463 587.726C898.194 591.506 940.273 593.737 983.57 582.555C1034.96 569.365 1081.91 540.218 1123.59 511.013C1152.02 491.113 1179.07 470.758 1207.95 452.822C1221.53 444.381 1235.58 436.511 1250.31 429.332C1344.07 383.731 1462.76 372.312 1571.9 391.934C1681.23 411.589 1781.84 459.636 1866.02 524.353M-465.378 266.914C-470.103 330.128 -403.189 383.203 -333.247 393.303C-326.995 394.191 -320.734 394.826 -314.464 395.208C-250.679 399.096 -187.645 377.801 -129.626 352.869C-118.461 348.052 -107.306 343.063 -96.1967 338.066C-43.9675 314.553 8.62883 290.469 66.213 280.465C84.8347 277.234 103.495 275.537 122.083 275.331C247.906 273.855 368.071 339.223 470.78 407.517C478.241 412.496 485.701 417.475 493.18 422.478C603.93 496.574 719.843 566.512 847.384 582.187C889.705 587.386 932.576 591.621 977.188 580.861C1030.15 568.158 1078.14 537.542 1119.92 506.723C1148.43 485.714 1175.26 464.112 1204.13 444.945C1217.71 435.933 1231.74 427.508 1246.59 419.799C1341.05 370.822 1463.42 358.313 1575.3 378.821C1687.37 399.361 1789.88 449.777 1875.7 516.669M-468.638 249.938C-473.419 313.078 -407.138 366.317 -337.389 377.061C-331.155 378.03 -324.903 378.706 -318.67 379.146C-254.994 383.629 -191.896 363.109 -133.609 338.796C-122.38 334.117 -111.207 329.258 -100.051 324.375C-47.6375 301.425 5.14327 277.797 62.7093 268.087C81.3403 264.921 99.9545 263.322 118.561 263.14C244.403 262.113 364.163 327.685 466.156 396.616C473.562 401.628 480.985 406.663 488.4 411.74C598.195 486.579 712.582 557.14 838.362 576.616C881.291 583.257 924.983 589.48 970.818 579.126C1025.32 566.885 1074.38 534.824 1116.26 502.391C1144.82 480.29 1171.44 457.4 1200.27 437.018C1213.84 427.452 1227.9 418.44 1242.84 410.217C1338 357.889 1464.03 344.307 1578.66 365.658C1693.45 387.058 1797.91 439.893 1885.38 508.918M-471.886 232.982C-476.731 296.09 -411.048 349.436 -341.546 360.857C-335.321 361.867 -329.088 362.624 -322.891 363.121C-259.371 368.191 -196.153 348.413 -137.627 324.736C-126.351 320.171 -115.131 315.426 -103.93 310.657C-51.332 288.269 1.6055 265.114 59.181 255.681C77.8121 252.621 96.4171 251.062 115.005 250.962C240.875 250.343 360.203 316.135 461.526 385.712C468.876 390.756 476.236 395.865 483.596 400.974C592.463 476.54 705.334 547.894 829.316 571.017C872.844 579.14 917.337 587.328 964.469 577.371C1020.53 565.617 1070.66 532.112 1112.64 498.024C1141.27 474.789 1167.69 450.677 1196.51 429.064C1210.04 418.919 1224.16 409.344 1239.22 400.592C1335.06 344.887 1464.78 330.215 1582.15 352.452C1699.66 374.712 1806.07 429.924 1895.18 501.124M-475.128 216.032C-480.028 279.066 -414.961 332.601 -345.716 344.634C-339.528 345.701 -333.331 346.516 -327.098 347.061C-263.688 352.726 -200.376 333.706 -141.61 310.665C-130.317 306.23 -119.051 301.6 -107.803 296.945C-55.0392 275.094 -1.88056 252.444 55.6584 243.28C74.2713 240.302 92.8581 238.825 111.456 238.79C237.354 238.578 356.25 304.591 456.875 374.829C464.188 379.93 471.493 385.072 478.77 390.231C586.709 466.524 698.082 538.8 820.266 565.465C864.412 575.095 909.67 585.197 958.098 575.638C1015.73 564.371 1066.9 529.397 1108.96 493.67C1137.68 469.326 1163.87 443.967 1192.65 421.14C1206.19 410.424 1220.29 400.295 1235.47 391.012C1332.02 331.956 1465.42 316.195 1585.53 339.315C1705.78 362.46 1814.1 420.043 1904.87 493.4M-478.4 199.096C-483.364 262.098 -418.922 315.756 -349.869 328.433C-343.7 329.581 -337.512 330.437 -331.315 331.039C-268.042 337.316 -204.629 319.013 -145.651 296.624C-134.311 292.303 -122.981 287.811 -111.715 283.287C-58.7662 261.999 -5.42334 239.805 52.1251 230.918C70.7381 228.046 89.3157 226.61 107.922 226.64C233.867 226.86 352.304 293.111 452.24 363.969C459.498 369.103 466.738 374.318 473.978 379.534C580.99 456.553 690.82 529.852 811.233 559.934C855.987 571.113 902.038 583.113 951.735 573.969C1010.91 563.164 1063.14 526.745 1105.31 489.404C1134.08 463.968 1160.08 437.345 1188.82 413.303C1202.32 402.009 1216.47 391.317 1231.77 381.504C1329.02 319.096 1466.11 302.245 1588.95 326.227C1711.92 350.232 1822.16 410.208 1914.6 485.724M-481.662 182.118C-486.681 245.046 -422.846 298.852 -354.041 312.206C-347.88 313.395 -341.711 314.332 -335.505 315C-272.369 321.889 -208.836 304.327 -149.618 282.574C-138.214 278.391 -126.883 274.005 -115.571 269.595C-62.4382 248.869 -8.93848 227.148 48.6194 218.538C67.2141 215.748 85.8194 214.401 104.389 214.489C230.362 215.116 348.367 281.587 447.605 353.107C454.826 358.298 462.011 363.546 469.169 368.811C575.271 446.582 683.53 521.024 802.2 554.403C847.581 567.154 894.415 580.987 945.381 572.257C1006.12 561.939 1059.4 524.051 1101.69 485.079C1130.54 458.534 1156.33 430.624 1185.05 405.391C1198.56 393.526 1212.72 382.264 1228.11 371.937C1326.05 306.153 1466.82 288.213 1592.4 313.079C1718.11 337.969 1830.26 400.315 1924.33 478.005M-484.907 165.163C-489.992 228.06 -426.781 281.988 -358.168 295.986C-352.044 297.233 -345.884 298.211 -339.696 298.96C-276.689 306.42 -213.063 289.616 -153.605 268.498C-142.155 264.43 -130.788 260.199 -119.448 255.878C-66.1303 235.715 -12.428 214.474 45.0935 206.134C63.6699 203.425 82.2569 202.159 100.836 202.312C226.809 203.364 344.428 270.064 442.95 342.22C450.089 347.46 457.237 352.766 464.34 358.063C569.514 436.561 676.184 512.228 793.156 548.805C839.127 563.185 886.772 578.836 939.035 570.503C1001.34 560.672 1055.66 521.315 1098.04 480.704C1126.92 453.042 1152.53 423.893 1181.21 397.446C1194.71 385.027 1208.9 373.218 1224.39 362.337C1323.03 293.201 1467.49 274.171 1595.79 299.897C1724.22 325.648 1838.29 390.388 1934.03 470.236M-488.177 148.231C-493.316 211.054 -430.739 265.146 -362.365 279.781C-356.278 281.084 -350.109 282.127 -343.958 282.934C-281.088 291.005 -217.341 274.943 -157.644 254.461C-146.175 250.523 -134.734 246.39 -123.33 242.208C-69.8188 222.565 -15.9412 201.822 41.5622 193.775C60.1386 191.172 78.7165 189.947 97.2866 190.141C223.288 191.6 340.475 258.521 438.326 331.322C445.428 336.619 452.521 341.957 459.541 347.304C563.788 426.528 668.869 503.526 784.134 543.236C830.713 559.271 879.132 576.69 932.664 568.771C996.51 559.402 1051.87 518.618 1094.38 476.376C1123.34 447.605 1148.73 417.209 1177.4 389.531C1190.86 376.533 1205.1 364.161 1220.71 352.75C1320.06 280.263 1468.18 260.119 1599.22 286.73C1730.4 313.365 1846.37 380.474 1943.78 462.481M-491.42 131.277C-496.624 194.067 -434.645 248.267 -366.518 263.578C-360.422 264.947 -354.289 266.048 -348.147 266.895C-285.387 275.561 -221.566 260.233 -161.639 240.427C-150.124 236.603 -138.664 232.6 -127.214 228.532C-73.5184 209.452 -19.484 189.181 38.0288 181.412C56.587 178.89 75.1465 177.747 93.7258 178.006C219.773 179.897 336.528 247.039 433.663 320.477C440.71 325.807 447.721 331.194 454.722 336.622C558.041 416.574 661.46 495.017 775.074 537.721C822.206 555.443 871.472 574.621 926.301 567.1C991.71 558.218 1048.12 515.965 1090.72 472.108C1119.74 442.245 1144.94 410.585 1173.57 381.693C1187.03 368.124 1201.26 355.198 1216.99 343.257C1317.02 267.394 1468.85 246.185 1602.61 273.656C1736.51 301.151 1854.4 370.655 1953.48 454.82M-494.684 114.3C-499.943 177.017 -438.58 231.405 -370.664 247.336C-364.604 248.762 -358.508 249.919 -352.357 250.832C-289.734 260.11 -225.811 245.499 -165.644 226.328C-154.065 222.643 -142.559 218.754 -131.09 214.816C-77.2102 196.299 -22.9731 176.509 34.5032 169.008C53.0614 166.593 71.6117 165.49 90.1728 165.831C216.248 168.13 332.572 235.492 429.008 309.591C436.019 314.978 442.974 320.398 449.893 325.875C552.284 406.554 654.012 486.459 766.021 532.165C813.697 551.615 863.829 572.471 919.927 565.364C986.899 556.969 1044.36 513.247 1087.09 467.76C1116.19 436.787 1141.14 403.856 1169.76 373.773C1183.18 359.626 1197.46 346.138 1213.28 333.682C1314.02 254.467 1469.51 232.144 1606.01 260.5C1742.65 288.88 1862.45 360.754 1963.2 447.077M-497.93 97.3461C-503.226 160.014 -442.515 214.542 -374.837 231.109C-368.787 232.576 -362.709 233.815 -356.567 234.768C-294.1 244.634 -230.038 230.789 -169.631 212.254C-158.006 208.683 -146.482 204.924 -134.967 201.1C-80.9024 183.145 -26.4809 163.811 30.9773 156.604C49.5172 154.27 68.0768 153.233 86.6472 153.639C212.751 156.345 328.642 223.928 424.381 298.689C431.336 304.109 438.227 309.602 445.091 315.111C546.554 396.517 646.501 477.974 756.977 526.569C805.188 547.786 856.186 570.321 913.535 563.603C982.051 555.671 1040.57 510.504 1083.38 463.378C1112.54 431.313 1137.3 397.119 1165.9 365.805C1179.34 351.087 1193.63 337.028 1209.56 324.042C1310.99 241.451 1470.19 218.063 1609.41 247.279C1748.77 276.52 1870.5 350.787 1972.88 439.284M-501.199 80.4118C-506.578 143.023 -446.446 197.682 -378.988 214.91C-372.956 216.459 -366.888 217.738 -360.782 218.748C-298.425 229.209 -234.289 216.098 -173.643 198.198C-161.998 194.758 -150.382 191.121 -138.867 187.404C-84.6185 170.011 -30.0402 151.149 27.4551 144.203C45.9767 141.951 64.5365 141.02 83.0977 141.466C209.22 144.621 324.707 212.408 419.729 287.806C426.648 293.283 433.484 298.809 440.265 304.368C540.801 386.5 638.975 469.573 747.927 521.016C796.646 544.018 848.52 568.19 907.183 561.894C977.263 554.449 1036.85 507.837 1079.74 459.073C1108.96 425.875 1133.54 390.442 1162.06 357.905C1175.48 342.632 1189.78 328.003 1205.83 314.487C1307.99 228.528 1470.83 204.042 1612.81 234.168C1754.89 264.268 1878.54 340.93 1982.59 431.585M-504.443 63.4592C-509.858 126.021 -450.379 180.82 -383.141 198.709C-377.146 200.314 -371.086 201.634 -365 202.726C-302.779 213.799 -238.523 201.429 -177.637 184.165C-165.947 180.839 -154.312 177.333 -142.705 173.737C-88.2902 156.882 -33.4909 138.526 23.9863 131.873C42.5081 129.727 61.0586 128.836 79.5831 129.34C205.733 132.902 320.761 200.927 415.141 276.953C421.977 282.479 428.803 288.046 435.548 293.661C535.155 376.521 631.456 461.235 738.968 515.476C788.139 540.296 840.961 566.097 900.903 560.174C972.546 553.216 1033.18 505.136 1076.17 454.757C1105.47 420.45 1129.83 383.77 1158.31 350.018C1171.72 334.151 1186.05 318.975 1202.22 304.929C1305.08 215.618 1471.61 190.043 1616.31 221.029C1761.13 252.014 1886.71 331.029 1992.4 423.859M-507.706 46.4787C-513.204 108.984 -454.332 163.93 -387.314 182.48C-381.328 184.126 -375.286 185.528 -369.209 186.661C-307.116 198.304 -242.768 186.693 -181.651 170.105C-169.897 166.917 -158.234 163.5 -146.608 160.035C-92.0092 143.742 -37.0256 125.842 20.4335 119.483C38.937 117.419 57.4692 116.61 76.0029 117.178C202.181 121.148 316.796 189.418 410.458 266.082C417.258 271.665 424.002 277.28 430.691 282.929C529.344 366.531 623.743 452.904 729.87 509.91C779.493 536.547 833.273 563.936 894.474 558.469C967.662 551.973 1029.36 502.448 1072.46 450.414C1101.81 415.015 1125.98 377.071 1154.45 342.088C1167.84 325.666 1182.2 309.903 1198.47 295.344C1302.02 202.657 1472.23 175.992 1619.67 207.863C1767.21 239.709 1894.74 321.142 2002.07 416.105M-510.951 29.5277C-516.486 91.9842 -458.22 147.078 -391.459 166.239C-385.509 167.942 -379.459 169.409 -373.418 170.599C-311.463 182.854 -246.994 171.985 -185.656 156.008C-173.855 152.934 -162.156 149.673 -150.484 146.322C-95.6728 130.574 -40.56 113.163 16.9086 107.081C35.4121 105.123 53.9352 104.355 72.4782 104.989C198.703 109.391 312.867 177.856 405.832 255.181C412.576 260.797 419.284 266.47 425.89 272.167C523.633 356.521 616.048 444.6 720.845 504.339C770.884 532.851 825.649 561.813 888.128 556.718C962.88 550.709 1025.63 499.715 1068.82 446.067C1098.26 409.559 1122.19 370.343 1150.64 334.171C1164.01 317.194 1178.38 300.861 1194.76 285.771C1299.01 189.733 1472.88 161.995 1623.07 194.709C1773.36 227.439 1902.79 311.243 2011.79 408.364M-514.222 12.5907C-519.84 74.9901 -462.18 130.231 -395.639 150.053C-389.68 151.822 -383.685 153.322 -377.662 154.593C-315.844 167.459 -251.274 157.307 -189.678 141.991C-177.858 139.047 -166.085 135.883 -154.395 132.663C-99.3995 117.478 -44.1023 100.523 13.3482 94.7348C31.8335 92.8578 50.3658 92.1547 68.8905 92.8702C195.143 97.6797 308.894 166.391 401.142 244.353C407.85 250.025 414.475 255.747 421.026 261.477C517.841 346.558 608.19 436.393 711.739 498.816C762.148 529.194 817.925 559.711 881.72 555.039C958.062 549.5 1021.83 497.054 1065.12 441.791C1094.6 404.166 1118.35 363.712 1146.79 326.308C1160.15 308.737 1174.54 291.857 1191.05 276.237C1296.01 176.847 1473.54 147.995 1626.47 181.594C1779.48 215.185 1910.83 301.382 2021.47 400.677M-517.466 -4.36332C-523.12 57.9873 -466.113 113.368 -399.765 133.834C-393.843 135.66 -387.866 137.241 -381.824 138.537C-320.116 151.999 -255.453 142.605 -193.636 127.899C-181.77 125.07 -169.96 122.061 -158.242 118.93C-103.081 104.283 -47.5625 87.8334 9.8515 82.3139C28.3369 80.5429 46.8327 79.897 65.3666 80.6777C191.62 85.9112 304.966 154.826 396.517 233.45C403.169 239.155 409.757 244.934 416.244 250.738C512.132 336.545 600.395 428.112 702.734 493.268C753.475 525.569 810.321 557.61 875.366 553.326C953.253 548.251 1018.08 494.36 1061.51 437.466C1091.06 398.732 1114.59 357.031 1142.99 318.413C1156.33 300.287 1170.76 282.861 1187.36 266.687C1293 163.92 1474.24 134.003 1629.9 168.462C1785.62 202.954 1918.9 291.505 2031.21 392.959M-520.728 -21.3384C-526.465 40.9553 -470.037 96.4672 -403.955 117.586C-398.069 119.469 -392.083 121.116 -386.079 122.468C-324.526 136.517 -259.743 127.865 -197.695 113.836C-185.783 111.12 -173.927 108.226 -162.145 105.233C-106.799 91.1482 -51.1238 75.1715 6.29968 69.9291C24.7667 68.2397 43.2716 67.659 61.8148 68.5049C188.114 74.1704 301.011 143.282 391.863 222.567C398.479 228.329 404.984 234.157 411.416 239.993C506.376 326.528 592.471 419.874 693.691 487.674C744.747 521.874 802.706 555.446 869.021 551.576C948.472 546.988 1014.35 491.628 1057.85 433.096C1087.46 393.269 1110.8 350.304 1139.16 310.471C1152.49 291.75 1166.94 273.778 1183.67 257.074C1290.01 150.956 1474.92 119.925 1633.31 155.269C1791.75 190.621 1926.96 281.566 2040.93 385.177M-523.971 -38.2887C-529.746 23.9561 -473.97 79.6075 -408.08 101.371C-402.185 103.319 -396.254 104.998 -390.222 106.441C-328.779 121.085 -263.903 113.19 -201.616 99.7967C-189.667 97.2361 -177.784 94.4309 -165.955 91.5525C-110.425 78.0299 -54.5652 62.5095 2.8678 57.5443C21.3166 55.9364 39.8216 55.4616 58.3372 56.3239C184.665 62.397 297.147 131.754 387.311 211.659C393.872 217.454 400.322 223.315 406.689 229.225C500.722 316.486 584.603 411.605 684.741 482.096C736.075 518.253 795.139 553.29 862.75 549.818C943.764 545.717 1010.69 488.888 1054.29 428.741C1083.98 387.806 1107.1 343.553 1135.45 302.53C1148.76 283.255 1163.25 264.695 1180.06 247.477C1287.1 137.983 1475.7 105.887 1636.87 142.099C1798.03 178.312 1935.16 271.651 2050.8 377.42M-527.244 -55.226C-533.101 6.96188 -477.886 62.769 -412.262 85.1848C-406.404 87.1902 -400.463 88.9346 -394.468 90.4343C-333.162 105.69 -268.184 98.5129 -205.657 85.7548C-193.663 83.3083 -181.714 80.6418 -169.886 77.8694C-114.171 64.909 -58.1087 49.8692 -0.71228 45.1731C17.7366 43.6712 36.2325 43.2373 54.7298 44.1811C181.085 50.6618 293.136 120.239 382.602 200.806C389.098 206.675 395.493 212.568 401.824 218.535C494.929 306.523 576.551 403.406 675.634 476.573C727.227 514.661 787.433 551.213 856.313 548.156C938.872 544.516 1006.86 486.243 1050.56 424.482C1080.31 382.454 1103.23 336.938 1131.54 294.7C1144.83 274.871 1159.33 255.741 1176.26 237.993C1284 125.147 1476.3 91.9609 1640.18 129.034C1804.08 166.131 1943.12 261.84 2060.43 369.767M-530.487 -72.1798C-536.381 -10.0408 -481.819 45.9059 -416.415 68.9824C-410.566 71.0285 -404.644 72.8542 -398.685 74.411C-337.508 90.2377 -272.437 83.8187 -209.652 71.7206C-197.611 69.3882 -185.644 66.8521 -173.751 64.2181C-117.852 51.8201 -61.6331 37.2529 -4.22717 32.834C14.2034 31.4137 32.7086 31.0449 51.2151 32.054C177.599 38.9423 289.208 108.781 377.985 189.968C384.426 195.87 390.785 201.82 397.033 207.836C489.21 296.551 568.499 395.207 666.619 471.065C718.417 511.118 779.828 549.111 849.977 546.468C934.099 543.315 1003.15 483.597 1046.95 420.157C1076.75 376.996 1099.48 330.258 1127.77 286.789C1141.06 266.364 1155.58 246.687 1172.63 228.41C1281.07 112.212 1477.03 77.9121 1643.66 115.87C1810.29 153.827 1951.25 251.93 2070.22 362.016M-533.751 -89.1578C-539.728 -27.0758 -485.772 29.0185 -420.579 52.7148C-414.767 54.8181 -408.854 56.6849 -402.886 58.3069C-341.846 74.7452 -276.655 69.0677 -213.648 57.5808C-201.562 55.3624 -189.53 52.9648 -177.637 50.4368C-121.544 38.5602 -65.1502 24.4901 -7.76239 20.3647C10.6683 19.0503 29.1368 18.7388 47.6526 19.813C174.055 27.1497 285.242 97.1686 373.321 179.017C379.725 184.976 386.001 190.975 392.194 197.024C483.443 286.466 560.353 386.885 657.538 465.419C709.54 507.437 772.148 546.912 843.594 544.666C929.279 542.001 999.378 480.814 1043.27 415.759C1073.16 371.489 1095.66 323.503 1123.92 278.82C1137.18 257.841 1151.74 237.577 1168.89 218.786C1278.02 99.2116 1477.68 63.8468 1647.03 102.665C1816.39 141.507 1959.26 241.979 2079.87 354.239M-537.023 -106.094C-543.036 -44.0607 -489.706 12.1568 -424.76 36.5302C-418.966 38.7149 -413.062 40.6223 -407.131 42.3014C-346.228 59.3514 -280.935 54.3914 -217.698 43.5808C-205.575 41.5172 -193.516 39.2093 -181.53 36.8035C-125.253 25.4892 -68.6563 11.8997 -11.3049 8.04342C7.10744 6.81062 25.5852 6.5643 44.0827 7.72008C170.513 15.4644 281.287 85.7285 368.649 168.214C374.998 174.205 381.237 180.262 387.348 186.359C477.669 276.529 552.154 378.704 648.469 459.946C700.601 503.937 764.461 544.861 837.176 543.029C924.406 540.826 995.57 478.195 1039.56 411.526C1069.51 366.163 1091.81 316.914 1120.02 270.992C1133.29 249.442 1147.83 228.624 1165.09 209.302C1274.92 86.3765 1478.26 49.8978 1650.34 89.6004C1822.43 129.303 1967.22 232.17 2089.5 346.588M-540.265 -123.048C-546.334 -61.0876 -493.638 -4.70629 -428.884 20.3114C-423.099 22.537 -417.241 24.5423 -411.292 26.2459C-350.499 43.8911 -285.113 39.6892 -221.655 29.4897C-209.485 27.5402 -197.38 25.3462 -185.376 23.0708C-128.915 12.3187 -72.161 -0.797902 -14.8002 -4.37702C3.6214 -5.54461 22.0532 -5.69315 40.5692 -4.51294C167.027 3.63892 277.369 74.1236 364.061 157.254C370.374 163.302 376.53 169.408 382.604 175.563C472.016 266.483 544.038 370.367 639.483 454.316C691.746 500.279 756.876 542.678 830.887 541.243C919.681 539.527 991.891 475.427 1035.99 407.143C1066.01 360.672 1088.08 310.152 1116.29 263.022C1129.52 240.894 1144.12 219.513 1161.5 199.662C1272.04 73.3841 1479.05 35.8158 1653.86 76.3786C1828.69 116.966 1975.42 222.186 2099.33 338.778M-543.509 -140C-550.188 -72.5526 -487.806 -11.5218 -415.509 10.2241C-343.229 31.9456 -264.087 22.8733 -189.26 9.3966C-114.433 -4.08013 -39.0594 -21.8052 37.0364 -16.6633C172.698 -7.46466 289.329 73.2182 377.767 164.857C466.251 256.505 535.757 362.128 630.404 448.777C682.77 496.729 749.207 540.544 824.488 539.524C914.844 538.295 988.101 472.726 1032.3 402.787C1076.51 332.849 1103.02 253.886 1157.75 190.08C1268.97 60.4261 1479.67 21.7683 1657.22 63.2159C1834.77 104.663 1983.42 212.277 2109 331.028" stroke="#FFF6E6" stroke-width="1.56225" stroke-miterlimit="10"/>
</g>
</svg>
